<svg width="100" height="100" viewBox="0 0 100 100" fill="none" xmlns="http://www.w3.org/2000/svg">
<circle cx="50" cy="50" r="50" fill="url(#paint0_linear_16_18)"/>
<g clip-path="url(#clip0_16_18)">
<path d="M39.6709 82C45.5589 82 50.3376 77.2213 50.3376 71.3333V60.6666H39.6709C33.7829 60.6666 29.0043 65.4453 29.0043 71.3333C29.0043 77.2213 33.7829 82 39.6709 82Z" fill="#0ACF83"/>
<path d="M29.0043 50C29.0043 44.112 33.7829 39.3334 39.6709 39.3334H50.3376V60.6667H39.6709C33.7829 60.6667 29.0043 55.888 29.0043 50Z" fill="#A259FF"/>
<path d="M29.0043 28.6667C29.0043 22.7787 33.7829 18 39.6709 18H50.3376V39.3333H39.6709C33.7829 39.3333 29.0043 34.5547 29.0043 28.6667Z" fill="#F24E1E"/>
<path d="M50.3376 18H61.0043C66.8923 18 71.6709 22.7787 71.6709 28.6667C71.6709 34.5547 66.8923 39.3333 61.0043 39.3333H50.3376V18Z" fill="#FF7262"/>
<path d="M71.6709 50C71.6709 55.888 66.8923 60.6667 61.0043 60.6667C55.1163 60.6667 50.3376 55.888 50.3376 50C50.3376 44.112 55.1163 39.3334 61.0043 39.3334C66.8923 39.3334 71.6709 44.112 71.6709 50Z" fill="#1ABCFE"/>
</g>
<defs>
<linearGradient id="paint0_linear_16_18" x1="50" y1="0" x2="50" y2="100" gradientUnits="userSpaceOnUse">
<stop stop-color="#C0C0CA"/>
<stop offset="1" stop-color="#C0C0CA" stop-opacity="0"/>
</linearGradient>
<clipPath id="clip0_16_18">
<rect width="42.6752" height="64" fill="white" transform="translate(29 18)"/>
</clipPath>
</defs>
</svg>
