<svg width="100" height="100" viewBox="0 0 100 100" fill="none" xmlns="http://www.w3.org/2000/svg">
<circle cx="50" cy="50" r="50" fill="url(#paint0_linear_16_15)"/>
<path d="M69.3325 40.59C68.6933 40.3717 68.0496 40.1684 67.4012 39.98C67.5087 39.5425 67.6079 39.1025 67.6987 38.66C69.1612 31.5475 68.205 25.8175 64.9412 23.9313C61.8162 22.1213 56.6912 24.0075 51.5212 28.5175C51.0129 28.9625 50.515 29.4209 50.0275 29.8925C49.7025 29.5792 49.3692 29.2725 49.0275 28.9725C43.6087 24.15 38.1775 22.1188 34.9175 24.0113C31.7925 25.825 30.8637 31.2113 32.18 37.9525C32.3117 38.6192 32.4596 39.2829 32.6237 39.9438C31.8767 40.1556 31.136 40.389 30.4025 40.6438C24.0575 42.8625 20 46.3413 20 49.9488C20 53.6763 24.355 57.4138 30.9712 59.68C31.5079 59.8625 32.0496 60.0321 32.5962 60.1888C32.4187 60.8963 32.2617 61.6117 32.125 62.335C30.875 68.96 31.85 74.2188 34.9687 76.0213C38.19 77.8825 43.5937 75.97 48.8612 71.3575C49.2779 70.9925 49.6946 70.6071 50.1112 70.2013C50.6379 70.7104 51.1796 71.2046 51.7362 71.6838C56.8363 76.0813 61.8725 77.8575 64.9862 76.05C68.205 74.1825 69.2512 68.5325 67.8925 61.6588C67.7883 61.1338 67.6683 60.5979 67.5325 60.0513C67.9125 59.9388 68.2846 59.8225 68.6487 59.7025C75.5237 57.4188 80.0025 53.7263 80.0025 49.9525C80 46.3275 75.8125 42.8263 69.3325 40.59ZM53.2075 30.455C57.6362 26.5913 61.7762 25.0663 63.6637 26.1563C65.6725 27.3175 66.4537 32 65.1912 38.1413C65.1079 38.5413 65.0179 38.94 64.9212 39.3375C62.2783 38.7364 59.5982 38.3121 56.8987 38.0675C55.3532 35.8411 53.6589 33.7217 51.8275 31.7238C52.2758 31.2888 52.735 30.8659 53.205 30.455H53.2075ZM37.7162 53.0313C38.2587 54.0813 38.8258 55.1184 39.4175 56.1425C40.02 57.1875 40.6479 58.2171 41.3012 59.2313C39.4438 59.0293 37.5981 58.7319 35.7712 58.34C36.3012 56.625 36.9537 54.8438 37.7162 53.0313ZM37.7162 46.99C36.9662 45.2163 36.3312 43.4713 35.81 41.7863C37.5225 41.4025 39.3475 41.0888 41.25 40.8513C40.6125 41.8463 39.9992 42.8559 39.41 43.88C38.8208 44.9042 38.255 45.9409 37.7125 46.99H37.7162ZM39.0787 50.0113C39.8687 48.3638 40.7196 46.7479 41.6312 45.1638C42.5421 43.5804 43.5117 42.0334 44.54 40.5225C46.325 40.3875 48.155 40.3163 50.0037 40.3163C51.8525 40.3163 53.6937 40.3875 55.4775 40.5238C56.495 42.0313 57.4587 43.5729 58.3687 45.1488C59.2787 46.7246 60.1408 48.3329 60.955 49.9738C60.1517 51.6271 59.2917 53.2496 58.375 54.8413C57.4658 56.4246 56.5075 57.9763 55.5 59.4963C53.7187 59.6213 51.875 59.69 50 59.69C48.125 59.69 46.3162 59.6313 44.5675 59.5175C43.5317 58.0017 42.5542 56.4479 41.635 54.8563C40.7158 53.2646 39.8625 51.6496 39.075 50.0113H39.0787ZM60.5937 56.125C61.1979 55.0767 61.7779 54.0146 62.3337 52.9388C63.0957 54.6664 63.7682 56.432 64.3487 58.2288C62.5005 58.645 60.6316 58.9642 58.75 59.185C59.385 58.1775 59.9996 57.1575 60.5937 56.125ZM62.3087 46.9913C61.7554 45.9371 61.18 44.8954 60.5825 43.8663C59.9992 42.8513 59.3912 41.8488 58.7587 40.8588C60.6725 41.1013 62.5087 41.4238 64.23 41.8175C63.6766 43.5732 63.0354 45.2999 62.3087 46.9913ZM50.0287 33.56C51.2769 34.9239 52.4555 36.3499 53.56 37.8325C51.1975 37.72 48.8333 37.72 46.4675 37.8325C47.6337 36.29 48.8275 34.8588 50.0287 33.56ZM36.2075 26.2325C38.215 25.0675 42.6537 26.7325 47.3325 30.8913C47.6312 31.1575 47.9325 31.4363 48.2325 31.725C46.3917 33.7227 44.6855 35.8402 43.125 38.0638C40.4316 38.3065 37.7568 38.724 35.1175 39.3138C34.965 38.7004 34.8275 38.0829 34.705 37.4613C33.5737 31.6825 34.3225 27.3263 36.2075 26.2325ZM33.2812 57.7138C32.7812 57.5713 32.2875 57.4167 31.8 57.25C28.875 56.25 26.4587 54.945 24.8 53.5238C23.315 52.25 22.5625 50.9788 22.5625 49.9488C22.5625 47.76 25.82 44.9675 31.2525 43.0738C31.935 42.8363 32.6233 42.6192 33.3175 42.4225C34.1243 45.0154 35.1014 47.5522 36.2425 50.0163C35.0878 52.5145 34.0986 55.0858 33.2812 57.7138ZM47.1725 69.4225C44.8438 71.4625 42.5112 72.9088 40.455 73.6375C38.6075 74.2913 37.1362 74.31 36.2475 73.7963C34.355 72.7025 33.5675 68.4788 34.6412 62.8138C34.7688 62.1471 34.9146 61.4804 35.0787 60.8138C37.7444 61.388 40.4461 61.7801 43.165 61.9875C44.7407 64.2226 46.461 66.3522 48.315 68.3625C47.9425 68.7288 47.5612 69.0813 47.1725 69.4225ZM50.1 66.52C48.885 65.2063 47.6725 63.7525 46.49 62.19C47.6392 62.235 48.8092 62.2575 50 62.2575C51.2225 62.2575 52.4325 62.2313 53.625 62.1775C52.5245 63.684 51.348 65.1333 50.1 66.52ZM65.665 70.0938C65.3075 72.0238 64.5887 73.3113 63.7 73.8263C61.8088 74.9238 57.765 73.4975 53.405 69.7363C52.905 69.3063 52.405 68.845 51.8962 68.3613C53.7141 66.3431 55.3941 64.2049 56.925 61.9613C59.659 61.7296 62.3737 61.3099 65.05 60.705C65.1725 61.2 65.2808 61.685 65.375 62.16C65.9762 65.1975 66.0625 67.945 65.665 70.0938ZM67.84 57.2638C67.5125 57.3725 67.175 57.4775 66.8325 57.58C65.9933 54.9749 64.9781 52.4299 63.7937 49.9625C64.9336 47.528 65.9091 45.0199 66.7137 42.455C67.3275 42.6338 67.9237 42.8213 68.4975 43.02C74.05 44.935 77.4375 47.77 77.4375 49.9488C77.4375 52.2738 73.7787 55.2913 67.84 57.2638Z" fill="#61DBFB"/>
<path d="M50 55.3187C51.0638 55.3222 52.1048 55.0099 52.991 54.4214C53.8772 53.8329 54.5688 52.9946 54.9783 52.0128C55.3878 51.0309 55.4968 49.9497 55.2914 48.9059C55.086 47.8621 54.5754 46.9027 53.8244 46.1492C53.0734 45.3958 52.1157 44.8821 51.0726 44.6733C50.0295 44.4645 48.9478 44.5699 47.9647 44.9762C46.9815 45.3825 46.141 46.0714 45.5496 46.9557C44.9582 47.84 44.6425 48.8799 44.6425 49.9437C44.6411 50.6485 44.7785 51.3467 45.047 51.9983C45.3155 52.65 45.7098 53.2423 46.2073 53.7415C46.7049 54.2407 47.296 54.6369 47.9467 54.9075C48.5975 55.1782 49.2952 55.3179 50 55.3187Z" fill="#61DBFB"/>
<defs>
<linearGradient id="paint0_linear_16_15" x1="50" y1="0" x2="50" y2="100" gradientUnits="userSpaceOnUse">
<stop stop-color="#C0C0CA"/>
<stop offset="1" stop-color="#C0C0CA" stop-opacity="0"/>
</linearGradient>
</defs>
</svg>
