<svg width="100" height="100" viewBox="0 0 100 100" fill="none" xmlns="http://www.w3.org/2000/svg">
<circle cx="50" cy="50" r="50" fill="url(#paint0_linear_16_14)"/>
<g clip-path="url(#clip0_16_14)">
<path d="M50 86.1159C49.0062 86.1159 48.0787 85.8509 47.2174 85.3872L38.4058 80.1532C37.0807 79.4244 37.7433 79.1594 38.1408 79.0269C39.9296 78.4306 40.2609 78.2981 42.1159 77.2381C42.3147 77.1056 42.5797 77.1718 42.7785 77.3043L49.5362 81.3458C49.8012 81.4783 50.1325 81.4783 50.3313 81.3458L76.766 66.0414C77.0311 65.9089 77.1636 65.6439 77.1636 65.3126V34.7702C77.1636 34.4389 77.0311 34.1739 76.766 34.0414L50.3313 18.8033C50.0663 18.6708 49.735 18.6708 49.5362 18.8033L23.1014 34.0414C22.8364 34.1739 22.7039 34.5052 22.7039 34.7702V65.3126C22.7039 65.5776 22.8364 65.9089 23.1014 66.0414L30.323 70.2153C34.2319 72.2029 36.6832 69.8841 36.6832 67.5652V37.4203C36.6832 37.0228 37.0145 36.6253 37.4783 36.6253H40.8571C41.2547 36.6253 41.6522 36.9565 41.6522 37.4203V67.5652C41.6522 72.7992 38.8033 75.8468 33.8344 75.8468C32.3106 75.8468 31.118 75.8468 27.7391 74.1905L20.7826 70.2153C19.06 69.2215 18 67.3665 18 65.3789V34.8364C18 32.8489 19.06 30.9938 20.7826 30L47.2174 14.6957C48.8737 13.7681 51.1263 13.7681 52.7826 14.6957L79.2174 30C80.94 30.9938 82 32.8489 82 34.8364V65.3789C82 67.3665 80.94 69.2215 79.2174 70.2153L52.7826 85.5197C51.9213 85.9172 50.9275 86.1159 50 86.1159ZM58.1491 65.1139C46.5549 65.1139 44.1698 59.8137 44.1698 55.3085C44.1698 54.911 44.501 54.5135 44.9648 54.5135H48.4099C48.8075 54.5135 49.1387 54.7785 49.1387 55.176C49.6687 58.6874 51.1925 60.4099 58.2153 60.4099C63.7805 60.4099 66.1656 59.1511 66.1656 56.1698C66.1656 54.4472 65.5031 53.1884 56.824 52.3271C49.6025 51.5983 45.0973 50.0083 45.0973 44.2443C45.0973 38.8778 49.6025 35.6977 57.1553 35.6977C65.6356 35.6977 69.8095 38.6128 70.3395 44.9731C70.3395 45.1718 70.2733 45.3706 70.1408 45.5694C70.0083 45.7019 69.8095 45.8344 69.6108 45.8344H66.1656C65.8344 45.8344 65.5031 45.5694 65.4369 45.2381C64.6418 41.5942 62.588 40.4017 57.1553 40.4017C51.06 40.4017 50.3313 42.5217 50.3313 44.1118C50.3313 46.0331 51.1925 46.6294 59.4079 47.6894C67.5569 48.7495 71.3996 50.2733 71.3996 55.971C71.3333 61.8012 66.5631 65.1139 58.1491 65.1139Z" fill="#539E43"/>
</g>
<defs>
<linearGradient id="paint0_linear_16_14" x1="50" y1="0" x2="50" y2="100" gradientUnits="userSpaceOnUse">
<stop stop-color="#C0C0CA"/>
<stop offset="1" stop-color="#C0C0CA" stop-opacity="0"/>
</linearGradient>
<clipPath id="clip0_16_14">
<rect width="64" height="72.25" fill="white" transform="translate(18 14)"/>
</clipPath>
</defs>
</svg>
