<svg width="100" height="100" viewBox="0 0 100 100" fill="none" xmlns="http://www.w3.org/2000/svg">
<circle cx="50" cy="50" r="50" fill="url(#paint0_linear_16_16)"/>
<g clip-path="url(#clip0_16_16)">
<path d="M47.9042 18.0172C47.7666 18.0297 47.3286 18.0735 46.9345 18.1048C37.8444 18.9242 29.3298 23.8283 23.937 31.3658C20.9341 35.5568 19.0135 40.3107 18.2878 45.3461C18.0313 47.1039 18 47.623 18 50.0063C18 52.3895 18.0313 52.9087 18.2878 54.6664C20.027 66.6826 28.5791 76.7785 40.1779 80.5191C42.2549 81.1884 44.4446 81.645 46.9345 81.9202C47.9042 82.0266 52.0958 82.0266 53.0655 81.9202C57.3634 81.4449 61.0045 80.3815 64.5955 78.5487C65.146 78.2672 65.2524 78.1922 65.1773 78.1296C65.1273 78.0921 62.7812 74.9457 59.966 71.1426L54.8485 64.2306L48.436 54.7414C44.9075 49.5246 42.0047 45.2586 41.9797 45.2586C41.9546 45.2523 41.9296 49.4683 41.9171 54.6163C41.8983 63.6301 41.8921 63.9929 41.7795 64.2055C41.6168 64.5121 41.4917 64.6372 41.2289 64.7748C41.0287 64.8749 40.8536 64.8936 39.9089 64.8936H38.8266L38.5388 64.7122C38.3511 64.5934 38.2135 64.437 38.1196 64.2556L37.9883 63.9741L38.0008 51.4324L38.0196 38.8845L38.2135 38.6406C38.3136 38.5092 38.5263 38.3403 38.6764 38.259C38.9329 38.1339 39.033 38.1214 40.1153 38.1214C41.3916 38.1214 41.6043 38.1714 41.9359 38.5342C42.0297 38.6343 45.5019 43.8637 49.6559 50.1626C53.81 56.4616 59.4905 65.0625 62.2807 69.2848L67.3482 76.9599L67.6047 76.791C69.8757 75.3148 72.278 73.213 74.1799 71.0237C78.2276 66.3761 80.8364 60.7089 81.7122 54.6664C81.9687 52.9087 82 52.3895 82 50.0063C82 47.623 81.9687 47.1039 81.7122 45.3461C79.973 33.3299 71.4209 23.2341 59.8221 19.4934C57.7763 18.8304 55.5992 18.3738 53.1593 18.0985C52.5588 18.036 48.4235 17.9672 47.9042 18.0172ZM61.0045 37.3708C61.3048 37.5209 61.5488 37.8086 61.6364 38.1089C61.6864 38.2715 61.6989 41.7494 61.6864 49.5872L61.6676 60.834L59.6845 57.794L57.695 54.754V46.5784C57.695 41.2928 57.72 38.3216 57.7576 38.1777C57.8577 37.8274 58.0766 37.5522 58.3769 37.3895C58.6334 37.2582 58.7273 37.2457 59.7095 37.2457C60.6354 37.2457 60.798 37.2582 61.0045 37.3708Z" fill="black"/>
</g>
<defs>
<linearGradient id="paint0_linear_16_16" x1="50" y1="0" x2="50" y2="100" gradientUnits="userSpaceOnUse">
<stop stop-color="#C0C0CA"/>
<stop offset="1" stop-color="#C0C0CA" stop-opacity="0"/>
</linearGradient>
<clipPath id="clip0_16_16">
<rect width="64" height="64" fill="white" transform="translate(18 18)"/>
</clipPath>
</defs>
</svg>
