<svg width="100" height="100" viewBox="0 0 100 100" fill="none" xmlns="http://www.w3.org/2000/svg">
<circle cx="50" cy="50" r="50" fill="url(#paint0_linear_16_23)"/>
<g clip-path="url(#clip0_16_23)">
<path d="M76.9121 67.5529C73.4324 67.4661 70.7357 67.8143 68.4739 68.771C67.8215 69.0319 66.7775 69.0321 66.6904 69.8584C67.0386 70.2065 67.082 70.7719 67.3865 71.2503C67.9088 72.1199 68.8218 73.2946 69.6483 73.9036C70.5616 74.5994 71.4752 75.2952 72.4318 75.9043C74.1283 76.9483 76.0421 77.557 77.6949 78.601C78.6521 79.2095 79.6085 79.9929 80.5655 80.6454C81.0441 80.993 81.3483 81.5586 81.9574 81.7761V81.6457C81.6528 81.2541 81.5658 80.6887 81.2616 80.2538C80.8269 79.8188 80.3917 79.4273 79.9567 78.9923C78.6952 77.2962 77.1295 75.8172 75.4331 74.5994C74.0415 73.6425 70.9966 72.3376 70.4312 70.7283C70.4312 70.7283 70.3875 70.6849 70.3441 70.6415C71.3011 70.5544 72.4318 70.2065 73.3454 69.9454C74.8244 69.5538 76.1726 69.6409 77.6949 69.2496C78.3907 69.0755 79.0868 68.858 79.7826 68.6406V68.2493C79 67.4661 78.4344 66.4224 77.6079 65.6829C75.3897 63.7688 72.9538 61.8988 70.4312 60.3331C69.0827 59.4632 67.3429 58.8975 65.9076 58.1583C65.3859 57.8969 64.5157 57.7668 64.2114 57.3318C63.4283 56.3749 62.9934 55.1137 62.428 53.9826C61.1671 51.5901 59.9487 48.9373 58.8613 46.4147C58.0788 44.7182 57.6001 43.0218 56.6432 41.4561C52.1633 34.062 47.2918 29.582 39.8106 25.1889C38.2012 24.2756 36.2876 23.884 34.2432 23.4057C33.1562 23.362 32.0685 23.2752 30.9811 23.2316C30.2853 22.9271 29.5892 22.1008 28.9802 21.7093C26.5015 20.1433 20.1073 16.751 18.2805 21.2309C17.1061 24.0581 20.0203 26.8416 21.0206 28.2772C21.7604 29.2775 22.717 30.4083 23.239 31.5393C23.5436 32.2782 23.6303 33.0616 23.9348 33.8445C24.6309 35.7578 25.2831 37.8895 26.1966 39.673C26.6753 40.5862 27.197 41.5432 27.806 42.3694C28.1539 42.8478 28.7627 43.0655 28.8934 43.8484C28.2846 44.7183 28.241 46.0231 27.8928 47.1105C26.3271 52.0254 26.9361 58.1147 29.1543 61.7247C29.8501 62.8118 31.5031 65.2046 33.7212 64.291C35.6785 63.5082 35.2436 61.0289 35.809 58.8542C35.9397 58.3319 35.8526 57.9843 36.1135 57.6363C36.1137 57.6797 36.1135 57.7234 36.1135 57.7234C36.7225 58.9412 37.3313 60.1156 37.8967 61.3334C39.2452 63.4645 41.5937 65.6829 43.551 67.1619C44.5953 67.9445 45.4215 69.293 46.7264 69.7716V69.6409H46.6393C46.3782 69.2493 45.9869 69.0755 45.639 68.771C44.8561 67.9881 43.986 67.0312 43.3772 66.1613C41.5506 63.7254 39.941 61.0289 38.5057 58.2451C37.8099 56.8969 37.2008 55.4179 36.6355 54.0697C36.3743 53.5474 36.3743 52.7649 35.9394 52.504C35.287 53.4607 34.3303 54.2872 33.8517 55.4616C33.0257 57.3318 32.9384 59.637 32.6339 62.0292C32.46 62.0729 32.5468 62.0292 32.4598 62.1163C31.0682 61.7681 30.5895 60.3331 30.0675 59.115C28.7627 56.027 28.5452 51.0684 29.6762 47.5021C29.9808 46.5885 31.2856 43.7179 30.7636 42.848C30.5028 42.0215 29.6326 41.5432 29.1542 40.8907C28.5889 40.0642 27.9798 39.0205 27.5885 38.107C26.5445 35.6713 26.0225 32.9746 24.8918 30.5387C24.3698 29.4077 23.4565 28.2335 22.717 27.1898C21.8908 26.0154 20.9772 25.1889 20.3248 23.797C20.1076 23.3186 19.8028 22.5358 20.1507 22.0138C20.2378 21.6659 20.4116 21.5354 20.7598 21.4484C21.3251 20.9698 22.9345 21.5788 23.4999 21.8397C25.1092 22.4918 26.4575 23.1012 27.806 24.0144C28.4148 24.4494 29.0672 25.2759 29.85 25.4934H30.7636C32.1555 25.7976 33.7212 25.5804 35.0261 25.9717C37.3315 26.7109 39.4189 27.7986 41.2895 28.973C46.9875 32.583 51.6846 37.7157 54.86 43.8484C55.382 44.8484 55.5992 45.7623 56.0778 46.806C56.9914 48.9373 58.1221 51.1121 59.0354 53.1998C59.9487 55.2439 60.8186 57.3318 62.1235 59.0283C62.7762 59.9413 65.3856 60.4199 66.56 60.8985C67.4299 61.2898 68.7784 61.638 69.5613 62.1163C71.0399 63.0293 72.5189 64.0736 73.9108 65.0739C74.6069 65.5956 76.7813 66.6833 76.9121 67.5529Z" fill="#00546B"/>
<path d="M32.5466 29.7556C31.8071 29.7556 31.2854 29.8429 30.7634 29.9734C30.7634 29.9734 30.7634 30.017 30.7634 30.0604H30.8505C31.1987 30.7562 31.8071 31.2348 32.2421 31.8436C32.5903 32.5394 32.8945 33.2355 33.2427 33.9316C33.2861 33.8879 33.3295 33.8445 33.3295 33.8445C33.9388 33.4093 34.243 32.7135 34.243 31.6698C33.9819 31.3653 33.9385 31.0607 33.721 30.7562C33.4602 30.321 32.8945 30.1038 32.5466 29.7556Z" fill="#00546B"/>
</g>
<defs>
<linearGradient id="paint0_linear_16_23" x1="50" y1="0" x2="50" y2="100" gradientUnits="userSpaceOnUse">
<stop stop-color="#C0C0CA"/>
<stop offset="1" stop-color="#C0C0CA" stop-opacity="0"/>
</linearGradient>
<clipPath id="clip0_16_23">
<rect width="64" height="63" fill="white" transform="translate(18 19)"/>
</clipPath>
</defs>
</svg>
