<svg width="100" height="100" viewBox="0 0 100 100" fill="none" xmlns="http://www.w3.org/2000/svg">
<circle cx="50" cy="50" r="50" fill="url(#paint0_linear_16_17)"/>
<mask id="mask0_16_17" style="mask-type:alpha" maskUnits="userSpaceOnUse" x="18" y="18" width="64" height="64">
<rect x="18" y="18" width="64" height="64" fill="#D9D9D9"/>
</mask>
<g mask="url(#mask0_16_17)">
</g>
<g clip-path="url(#clip0_16_17)">
<path d="M50 31C41.4667 31 36.1333 35.2556 34 43.7668C37.2 39.5112 40.9333 37.9153 45.2 38.9792C47.6344 39.5862 49.3743 41.3477 51.3003 43.2976C54.4377 46.4739 58.0689 50.1501 66 50.1501C74.5333 50.1501 79.8667 45.8945 82 37.3834C78.8 41.639 75.0667 43.2348 70.8 42.1709C68.3656 41.5639 66.6257 39.8024 64.6997 37.8526C61.5623 34.6762 57.9311 31 50 31ZM34 50.1501C25.4667 50.1501 20.1333 54.4057 18 62.9169C21.2 58.6613 24.9333 57.0655 29.2 58.1294C31.6344 58.7364 33.3743 60.4978 35.3003 62.4477C38.4377 65.624 42.0689 69.3003 50 69.3003C58.5333 69.3003 63.8667 65.0447 66 56.5335C62.8 60.7891 59.0667 62.3849 54.8 61.321C52.3656 60.714 50.6257 58.9526 48.6997 57.0027C45.5623 53.8264 41.9311 50.1501 34 50.1501Z" fill="url(#paint1_linear_16_17)"/>
</g>
<defs>
<linearGradient id="paint0_linear_16_17" x1="50" y1="0" x2="50" y2="100" gradientUnits="userSpaceOnUse">
<stop stop-color="#C0C0CA"/>
<stop offset="1" stop-color="#C0C0CA" stop-opacity="0"/>
</linearGradient>
<linearGradient id="paint1_linear_16_17" x1="16.2222" y1="43.2561" x2="71.4249" y2="75.1675" gradientUnits="userSpaceOnUse">
<stop stop-color="#2298BD"/>
<stop offset="1" stop-color="#0ED7B5"/>
</linearGradient>
<clipPath id="clip0_16_17">
<rect width="64" height="38.4" fill="white" transform="translate(18 31)"/>
</clipPath>
</defs>
</svg>
