<svg width="100" height="100" viewBox="0 0 100 100" fill="none" xmlns="http://www.w3.org/2000/svg">
<circle cx="50" cy="50" r="50" fill="url(#paint0_linear_16_22)"/>
<mask id="mask0_16_22" style="mask-type:alpha" maskUnits="userSpaceOnUse" x="18" y="18" width="64" height="64">
<rect x="18" y="18" width="64" height="64" fill="#D9D9D9"/>
</mask>
<g mask="url(#mask0_16_22)">
<path fill-rule="evenodd" clip-rule="evenodd" d="M51.7859 81.9999L50.0821 81.4178C50.0821 81.4178 50.2901 72.7321 47.1732 72.1088C45.0953 69.6985 47.5057 -30.1247 54.986 71.7764C54.986 71.7764 52.4096 73.0646 51.9523 75.2673C51.4535 77.4284 51.7859 81.9999 51.7859 81.9999Z" fill="white"/>
<path fill-rule="evenodd" clip-rule="evenodd" d="M51.7859 81.9999L50.0821 81.4178C50.0821 81.4178 50.2901 72.7321 47.1732 72.1088C45.0953 69.6985 47.5057 -30.1247 54.986 71.7764C54.986 71.7764 52.4096 73.0646 51.9523 75.2673C51.4535 77.4284 51.7859 81.9999 51.7859 81.9999Z" fill="#A6A385"/>
<path fill-rule="evenodd" clip-rule="evenodd" d="M52.7003 73.605C52.7003 73.605 67.6197 63.7972 64.1288 43.3919C60.7627 28.5558 52.8248 23.6935 51.9522 21.8232C50.9965 20.4934 50.082 18.1663 50.082 18.1663L50.7057 59.4334C50.7057 59.475 49.4171 72.0672 52.7003 73.605Z" fill="white"/>
<path fill-rule="evenodd" clip-rule="evenodd" d="M52.7003 73.605C52.7003 73.605 67.6197 63.7972 64.1288 43.3919C60.7627 28.5558 52.8248 23.6935 51.9522 21.8232C50.9965 20.4934 50.082 18.1663 50.082 18.1663L50.7057 59.4334C50.7057 59.475 49.4171 72.0672 52.7003 73.605Z" fill="#499D4A"/>
<path fill-rule="evenodd" clip-rule="evenodd" d="M49.2095 74.1453C49.2095 74.1453 35.2043 64.5867 36.0356 47.7559C36.8249 30.9247 46.7159 22.6547 48.6274 21.1585C49.8744 19.8287 49.916 19.3298 49.9992 18C50.8717 19.8703 50.7057 45.9688 50.8301 49.0441C51.2042 60.8882 50.1652 71.9013 49.2095 74.1453Z" fill="white"/>
<path fill-rule="evenodd" clip-rule="evenodd" d="M49.2095 74.1453C49.2095 74.1453 35.2043 64.5867 36.0356 47.7559C36.8249 30.9247 46.7159 22.6547 48.6274 21.1585C49.8744 19.8287 49.916 19.3298 49.9992 18C50.8717 19.8703 50.7057 45.9688 50.8301 49.0441C51.2042 60.8882 50.1652 71.9013 49.2095 74.1453Z" fill="#58AA50"/>
</g>
<defs>
<linearGradient id="paint0_linear_16_22" x1="50" y1="0" x2="50" y2="100" gradientUnits="userSpaceOnUse">
<stop stop-color="#C0C0CA"/>
<stop offset="1" stop-color="#C0C0CA" stop-opacity="0"/>
</linearGradient>
</defs>
</svg>
